<?xml version="1.0" encoding="UTF-8"?>
<svg width="121px" height="122px" viewBox="0 0 121 122" version="1.1" xmlns="http://www.w3.org/2000/svg" xmlns:xlink="http://www.w3.org/1999/xlink">
    <!-- Generator: Sketch 48 (47235) - http://www.bohemiancoding.com/sketch -->
    <title>icon_1-choose</title>
    <desc>Created with Sketch.</desc>
    <defs>
        <polygon id="path-1" points="80.1174 1.42108547e-14 0.8534 1.42108547e-14 0.8534 106.2606 80.1174 106.2606 80.1174 0"></polygon>
    </defs>
    <g id="icons" stroke="none" stroke-width="1" fill="none" fill-rule="evenodd" transform="translate(-270.000000, -846.000000)">
        <g id="icon_1-choose" transform="translate(270.000000, 846.000000)">
            <polygon id="Fill-1" fill="#00B3EC" points="20.799 80.8808 1.212 121.2418 119.319 121.2418 101.514 80.8808"></polygon>
            <path d="M20.3229,80.1221 L-0.0001,122.0001 L120.4819,122.0001 L102.0079,80.1221 L20.3229,80.1221 Z M21.2729,81.6391 L101.0189,81.6391 L118.1549,120.4831 L2.4229,120.4831 L21.2729,81.6391 Z" id="Fill-2" fill="#333333"></path>
            <g id="Group-14" transform="translate(18.000000, 0.000000)">
                <path d="M79.3584,39.6328 C79.3584,67.2298 40.4844,105.2128 40.4844,105.2128 C40.4844,105.2128 1.6114,69.0108 1.6114,39.6328 C1.6114,18.1618 19.0144,0.7588 40.4844,0.7588 C61.9544,0.7588 79.3584,18.1618 79.3584,39.6328" id="Fill-3" fill="#FE422D"></path>
                <g id="Group-7">
                    <mask id="mask-2" fill="white">
                        <use xlink:href="#path-1"></use>
                    </mask>
                    <g id="Clip-6"></g>
                    <path d="M40.4844,1.5176 C19.4674,1.5176 2.3704,18.6166 2.3704,39.6326 C2.3704,66.4926 35.8294,99.6806 40.4724,104.1536 C45.0744,99.5176 78.5994,64.8696 78.5994,39.6326 C78.5994,18.6166 61.5014,1.5176 40.4844,1.5176 Z M40.4964,106.2606 L39.9674,105.7676 C38.3694,104.2806 0.8534,69.0026 0.8534,39.6326 C0.8534,17.7796 18.6314,-0.0004 40.4844,-0.0004 C62.3374,-0.0004 80.1174,17.7796 80.1174,39.6326 C80.1174,67.2316 42.6104,104.1956 41.0154,105.7546 L40.4964,106.2606 Z" id="Fill-5" fill="#333333" mask="url(#mask-2)"></path>
                </g>
                <path d="M59.7334,39.707 C59.7334,49.764 51.5794,57.917 41.5234,57.917 C31.4664,57.917 23.3134,49.764 23.3134,39.707 C23.3134,29.649 31.4664,21.497 41.5234,21.497 C51.5794,21.497 59.7334,29.649 59.7334,39.707" id="Fill-8" fill="#FFFFFF"></path>
                <path d="M41.5235,22.2559 C31.8995,22.2559 24.0715,30.0839 24.0715,39.7069 C24.0715,49.3299 31.8995,57.1579 41.5235,57.1579 C51.1455,57.1579 58.9745,49.3299 58.9745,39.7069 C58.9745,30.0839 51.1455,22.2559 41.5235,22.2559 M41.5235,58.6759 C31.0635,58.6759 22.5545,50.1659 22.5545,39.7069 C22.5545,29.2469 31.0635,20.7379 41.5235,20.7379 C51.9825,20.7379 60.4915,29.2469 60.4915,39.7069 C60.4915,50.1659 51.9825,58.6759 41.5235,58.6759" id="Fill-10" fill="#333333"></path>
                <polygon id="Fill-12" fill="#FE422D" points="44.9556 39.2393 41.6966 42.5363 41.2466 42.5363 37.9686 39.2393 37.9686 45.8693 35.7036 45.8693 35.7036 34.6323 36.3206 34.6323 41.4346 39.6703 46.6036 34.6323 47.2026 34.6323 47.2026 45.8693 44.9556 45.8693"></polygon>
            </g>
        </g>
    </g>
</svg>