<?xml version="1.0" encoding="UTF-8"?>
<svg width="140px" height="140px" viewBox="0 0 140 140" version="1.1" xmlns="http://www.w3.org/2000/svg" xmlns:xlink="http://www.w3.org/1999/xlink">
    <!-- Generator: Sketch 48 (47235) - http://www.bohemiancoding.com/sketch -->
    <title>icon_3-eat</title>
    <desc>Created with Sketch.</desc>
    <defs>
        <polygon id="path-1" points="0 140 139.998 140 139.998 0 0 0"></polygon>
    </defs>
    <g id="icons" stroke="none" stroke-width="1" fill="none" fill-rule="evenodd" transform="translate(-1041.000000, -837.000000)">
        <g id="icon_3-eat" transform="translate(1041.000000, 837.000000)">
            <polygon id="Fill-1" fill="#00B3EB" points="69.9984 -0.0004 0.0004 69.9996 69.9984 139.9996 139.9984 69.9996"></polygon>
            <g id="Group-21">
                <path d="M116.1203,68.8193 C116.1203,94.1473 95.5893,114.6763 70.2633,114.6763 C44.9353,114.6763 24.4033,94.1473 24.4033,68.8193 C24.4033,43.4943 44.9353,22.9623 70.2633,22.9623 C95.5893,22.9623 116.1203,43.4943 116.1203,68.8193 Z" id="Fill-2" fill="#FFFFFF"></path>
                <path d="M70.2629,23.7451 C45.4079,23.7451 25.1869,43.9661 25.1869,68.8191 C25.1869,93.6731 45.4079,113.8941 70.2629,113.8941 C95.1169,113.8941 115.3369,93.6731 115.3369,68.8191 C115.3369,43.9661 95.1169,23.7451 70.2629,23.7451 M70.2629,115.4601 C44.5439,115.4601 23.6209,94.5371 23.6209,68.8191 C23.6209,43.1021 44.5439,22.1801 70.2629,22.1801 C95.9809,22.1801 116.9039,43.1021 116.9039,68.8191 C116.9039,94.5371 95.9809,115.4601 70.2629,115.4601" id="Fill-4" fill="#333333"></path>
                <path d="M70.2629,41.043 C54.9469,41.043 42.4849,53.503 42.4849,68.819 C42.4849,84.136 54.9469,96.597 70.2629,96.597 C85.5769,96.597 98.0379,84.136 98.0379,68.819 C98.0379,53.503 85.5769,41.043 70.2629,41.043 M70.2629,101.293 C52.3569,101.293 37.7879,86.726 37.7879,68.819 C37.7879,50.913 52.3569,36.346 70.2629,36.346 C88.1679,36.346 102.7349,50.913 102.7349,68.819 C102.7349,86.726 88.1679,101.293 70.2629,101.293" id="Fill-6" fill="#C5D8DE"></path>
                <polygon id="Fill-8" fill="#333333" points="9.4846 45.5117 7.9196 45.4627 8.6076 23.6657 10.1726 23.7147"></polygon>
                <mask id="mask-2" fill="white">
                    <use xlink:href="#path-1"></use>
                </mask>
                <g id="Clip-11"></g>
                <polygon id="Fill-10" fill="#333333" mask="url(#mask-2)" points="12.414 45.796 13.979 45.796 13.979 23.691 12.414 23.691"></polygon>
                <polygon id="Fill-12" fill="#333333" mask="url(#mask-2)" points="21.0539 45.5117 20.3669 23.7147 21.9319 23.6657 22.6189 45.4627"></polygon>
                <polygon id="Fill-13" fill="#333333" mask="url(#mask-2)" points="16.563 45.796 18.128 45.796 18.128 23.691 16.563 23.691"></polygon>
                <path d="M20.3937,55.5537 C21.3587,54.7907 22.2617,52.7637 22.2997,51.6177 C22.3377,50.4747 22.0597,46.2227 22.0597,46.2227 L8.5787,46.2227 C8.5787,46.2227 8.2987,50.4747 8.3367,51.6177 C8.3747,52.7637 9.2787,54.7907 10.2437,55.5537 C11.2107,56.3187 12.9677,58.0817 13.1487,60.3657 C13.3287,62.6507 12.4277,80.5637 12.0977,86.4187 C11.8117,91.4697 9.6597,113.0367 9.6597,113.4077 C9.6597,116.2747 12.1977,118.5987 15.3257,118.5987 C18.4557,118.5987 20.9917,116.2747 20.9917,113.4077 C20.9917,113.0157 18.8237,91.4547 18.5397,86.4187 C18.2097,80.5637 17.3097,62.6507 17.4907,60.3657 C17.6687,58.0817 19.4237,56.3187 20.3937,55.5537" id="Fill-14" fill="#FFFFFF" mask="url(#mask-2)"></path>
                <path d="M9.3137,47.0059 C9.2357,48.2639 9.0917,50.7799 9.1197,51.5919 C9.1507,52.5029 9.9517,54.3239 10.7297,54.9399 C11.4237,55.4879 13.7067,57.4969 13.9277,60.3059 C14.1307,62.8719 13.0817,82.8869 12.8787,86.4629 C12.6767,90.0269 11.5677,101.6009 10.9037,108.5159 C10.6517,111.1529 10.4517,113.2369 10.4427,113.4329 C10.4427,115.8389 12.6327,117.8159 15.3257,117.8159 C18.0177,117.8159 20.2097,115.8389 20.2097,113.4079 C20.1997,113.2279 19.9827,110.9819 19.7317,108.3829 C19.0687,101.5059 17.9587,89.9949 17.7587,86.4629 C17.5577,82.8869 16.5067,62.8719 16.7107,60.3059 C16.9307,57.4939 19.2147,55.4859 19.9097,54.9399 C20.6857,54.3239 21.4867,52.5029 21.5177,51.5919 C21.5447,50.7799 21.4017,48.2639 21.3247,47.0059 L9.3137,47.0059 Z M15.3257,119.3819 C11.7687,119.3819 8.8767,116.7009 8.8767,113.4079 C8.8767,113.2789 8.9377,112.6189 9.3457,108.3659 C10.0077,101.4629 11.1167,89.9069 11.3167,86.3739 C11.6837,79.8559 12.5377,62.5659 12.3687,60.4279 C12.1957,58.2519 10.3277,56.6179 9.7587,56.1679 C8.5707,55.2299 7.5987,52.9649 7.5537,51.6449 C7.5157,50.4769 7.7867,46.3469 7.7967,46.1709 L7.8457,45.4409 L22.7937,45.4409 L22.8407,46.1719 C22.8517,46.3469 23.1217,50.4769 23.0837,51.6449 C23.0387,52.9649 22.0667,55.2299 20.8797,56.1679 C20.3097,56.6159 18.4417,58.2489 18.2697,60.4279 C18.1017,62.5659 18.9557,79.8559 19.3227,86.3739 C19.5187,89.8759 20.6267,101.3659 21.2897,108.2319 C21.7077,112.5489 21.7747,113.2739 21.7747,113.4079 C21.7747,116.7009 18.8817,119.3819 15.3257,119.3819 Z" id="Fill-15" fill="#333333" mask="url(#mask-2)"></path>
                <path d="M126.1057,78.3906 C125.5407,88.8846 124.2347,113.0546 124.2347,113.2966 C124.2347,116.2226 126.4467,118.5986 129.1737,118.5986 C131.9027,118.5986 134.1137,116.2226 134.1137,113.2966 C134.1137,113.0256 132.0047,88.9306 132.1367,72.4786 L126.1057,78.3906 Z" id="Fill-16" fill="#FFFFFF" mask="url(#mask-2)"></path>
                <path d="M132.0773,75.3037 C132.0773,73.8167 132.3753,29.1267 131.7913,26.2177 C131.5173,24.8557 130.9043,21.6507 129.4063,21.6507 C125.5983,21.6507 121.6213,32.2137 121.6213,42.4997 C121.6213,42.9847 121.5953,43.5347 121.5483,44.1417 L121.5483,68.8167 C121.5483,71.3227 121.6723,73.2547 123.0213,75.2037 C124.2133,76.9247 126.0353,77.8987 127.8493,77.8987 L128.8143,77.8987 C129.7213,77.8987 130.5873,77.6657 131.3743,77.2447 C131.8043,76.7697 132.0773,76.0767 132.0773,75.3037" id="Fill-17" fill="#FFFFFF" mask="url(#mask-2)"></path>
                <path d="M129.174,119.3818 C126.019,119.3818 123.451,116.6528 123.451,113.2968 C123.451,113.1028 123.992,103.0388 125.057,83.2888 L125.324,78.3478 L126.887,78.4338 L126.62,83.3728 C126.026,94.3998 125.03,112.8538 125.017,113.3138 C125.017,115.7888 126.882,117.8158 129.174,117.8158 C131.466,117.8158 133.331,115.7888 133.331,113.2968 C133.328,113.2618 133.303,112.9628 133.264,112.4628 C131.939,95.9128 131.278,82.0838 131.354,72.4728 L132.92,72.4848 C132.845,81.9158 133.521,96.0698 134.824,112.3378 C134.872,112.9308 134.897,113.2648 134.897,113.2968 C134.897,116.6528 132.329,119.3818 129.174,119.3818" id="Fill-18" fill="#333333" mask="url(#mask-2)"></path>
                <path d="M129.4064,22.4336 C126.3484,22.4336 122.4034,32.1646 122.4034,42.4996 C122.4034,43.0026 122.3784,43.5736 122.3274,44.2036 L122.3304,68.8166 C122.3304,71.1676 122.4274,72.9686 123.6654,74.7576 C124.6864,76.2346 126.2514,77.1156 127.8494,77.1156 L128.8144,77.1156 C129.5254,77.1156 130.2184,76.9496 130.8754,76.6216 C131.1424,76.2746 131.2944,75.8016 131.2944,75.3036 L131.3024,73.5956 C131.5024,34.7136 131.2134,27.3186 131.0234,26.3716 C130.3094,22.8096 129.6554,22.4336 129.4064,22.4336 M128.8144,78.6806 L127.8494,78.6806 C125.7384,78.6806 123.6924,77.5476 122.3784,75.6496 C120.8844,73.4926 120.7644,71.3686 120.7644,68.8166 L120.7644,44.1416 C120.8124,43.4966 120.8384,42.9656 120.8384,42.4996 C120.8384,32.7016 124.6604,20.8686 129.4064,20.8686 C131.5174,20.8686 132.1844,24.1946 132.5424,25.9836 C132.9184,27.8506 133.0224,43.8456 132.8674,73.6056 L132.8594,75.3036 C132.8594,76.2346 132.5294,77.1336 131.9554,77.7696 L131.7424,77.9366 C130.8174,78.4306 129.8314,78.6806 128.8144,78.6806" id="Fill-19" fill="#333333" mask="url(#mask-2)"></path>
                <polygon id="Fill-20" fill="#FE422D" mask="url(#mask-2)" points="74.8928 68.5859 70.3398 73.1929 69.7098 73.1929 65.1308 68.5859 65.1308 77.8509 61.9658 77.8509 61.9658 62.1489 62.8298 62.1489 69.9728 69.1879 77.1958 62.1489 78.0328 62.1489 78.0328 77.8509 74.8928 77.8509"></polygon>
            </g>
        </g>
    </g>
</svg>