<?xml version="1.0" encoding="UTF-8"?>
<svg width="120px" height="127px" viewBox="0 0 120 127" version="1.1" xmlns="http://www.w3.org/2000/svg" xmlns:xlink="http://www.w3.org/1999/xlink">
    <!-- Generator: Sketch 48 (47235) - http://www.bohemiancoding.com/sketch -->
    <title>icon_2-pickup</title>
    <desc>Created with Sketch.</desc>
    <defs>
        <polygon id="path-1" points="0 127 119.36 127 119.36 0 0 0"></polygon>
    </defs>
    <g id="icons" stroke="none" stroke-width="1" fill="none" fill-rule="evenodd" transform="translate(-660.000000, -844.000000)">
        <g id="icon_2-pickup" transform="translate(660.000000, 844.000000)">
            <polygon id="Fill-1" fill="#00B3EB" points="7.418 94.74 108.543 94.74 108.543 0 7.418 0"></polygon>
            <polygon id="Fill-2" fill="#FFFFFF" points="44.449 118.95 118.546 118.95 118.546 24.579 44.449 24.579"></polygon>
            <path d="M43.635,119.765 L119.361,119.765 L119.361,23.765 L43.635,23.765 L43.635,119.765 Z M45.264,118.136 L117.732,118.136 L117.732,25.393 L45.264,25.393 L45.264,118.136 Z" id="Fill-3" fill="#333333"></path>
            <g id="Group-23">
                <path d="M60.2581,36.5127 C60.2581,33.9747 62.3241,31.9137 64.8621,31.9137 C67.4041,31.9137 69.4671,33.9747 69.4671,36.5127 C69.4671,39.0577 67.4041,41.1187 64.8621,41.1187 C62.3241,41.1187 60.2581,39.0577 60.2581,36.5127 Z" id="Fill-4" fill="#C5D8DE"></path>
                <path d="M94.3333,36.5127 C94.3333,39.0577 96.3983,41.1187 98.9373,41.1187 C101.4793,41.1187 103.5413,39.0577 103.5413,36.5127 C103.5413,33.9747 101.4793,31.9137 98.9373,31.9137 C96.3983,31.9137 94.3333,33.9747 94.3333,36.5127" id="Fill-6" fill="#C5D8DE"></path>
                <path d="M99.3509,36.9365 L97.7679,36.9365 L97.7679,21.9035 C97.7679,13.1415 90.6409,6.0145 81.8779,6.0145 C73.1189,6.0145 65.9919,13.1415 65.9919,21.9035 L65.9919,36.9365 L64.4089,36.9365 L64.4089,21.9035 C64.4089,12.2695 72.2439,4.4315 81.8779,4.4315 C91.5129,4.4315 99.3509,12.2695 99.3509,21.9035 L99.3509,36.9365 Z" id="Fill-8" fill="#333333"></path>
                <path d="M95.5404,68.1133 C95.5404,75.5463 89.5144,81.5723 82.0804,81.5723 C74.6494,81.5723 68.6234,75.5463 68.6234,68.1133 C68.6234,60.6803 74.6494,54.6553 82.0804,54.6553 C89.5144,54.6553 95.5404,60.6803 95.5404,68.1133" id="Fill-10" fill="#FE422D"></path>
                <path d="M82.0804,55.4473 C75.0994,55.4473 69.4154,61.1293 69.4154,68.1133 C69.4154,75.0983 75.0994,80.7803 82.0804,80.7803 C89.0654,80.7803 94.7484,75.0983 94.7484,68.1133 C94.7484,61.1293 89.0654,55.4473 82.0804,55.4473 M82.0804,82.3633 C74.2244,82.3633 67.8324,75.9703 67.8324,68.1133 C67.8324,60.2573 74.2244,53.8643 82.0804,53.8643 C89.9364,53.8643 96.3314,60.2573 96.3314,68.1133 C96.3314,75.9703 89.9364,82.3633 82.0804,82.3633" id="Fill-12" fill="#FFFFFF"></path>
                <polygon id="Fill-14" fill="#FFFFFF" points="84.8988 67.2998 82.2788 69.9518 81.9158 69.9518 79.2798 67.2998 79.2798 72.6328 77.4578 72.6328 77.4578 63.5948 77.9548 63.5948 82.0668 67.6468 86.2248 63.5948 86.7068 63.5948 86.7068 72.6328 84.8988 72.6328"></polygon>
                <mask id="mask-2" fill="white">
                    <use xlink:href="#path-1"></use>
                </mask>
                <g id="Clip-17"></g>
                <polygon id="Fill-16" fill="#FFFFFF" mask="url(#mask-2)" points="0.748 126.252 49.712 126.252 49.712 74.645 0.748 74.645"></polygon>
                <polygon id="Fill-18" fill="#C5D8DE" mask="url(#mask-2)" points="0.748 126.252 49.712 126.252 49.712 74.645 0.748 74.645"></polygon>
                <path d="M1.495,125.505 L48.965,125.505 L48.965,75.392 L1.495,75.392 L1.495,125.505 Z M0,127 L50.46,127 L50.46,73.896 L0,73.896 L0,127 Z" id="Fill-19" fill="#333333" mask="url(#mask-2)"></path>
                <path d="M10.7913,82.7725 C10.7913,84.5015 12.1923,85.9065 13.9193,85.9065 C15.6473,85.9065 17.0533,84.5015 17.0533,82.7725 C17.0533,81.0475 15.6473,79.6455 13.9193,79.6455 C12.1923,79.6455 10.7913,81.0475 10.7913,82.7725" id="Fill-20" fill="#FFFFFF" mask="url(#mask-2)"></path>
                <path d="M33.9564,82.7725 C33.9564,84.5015 35.3584,85.9065 37.0844,85.9065 C38.8124,85.9065 40.2124,84.5015 40.2124,82.7725 C40.2124,81.0475 38.8124,79.6455 37.0844,79.6455 C35.3584,79.6455 33.9564,81.0475 33.9564,82.7725" id="Fill-21" fill="#FFFFFF" mask="url(#mask-2)"></path>
                <path d="M37.5755,83.0615 L36.0795,83.0615 L36.0795,72.8405 C36.0795,66.9995 31.3285,62.2485 25.4865,62.2485 C19.6485,62.2485 14.8975,66.9995 14.8975,72.8405 L14.8975,83.0615 L13.4015,83.0615 L13.4015,72.8405 C13.4015,66.1745 18.8225,60.7525 25.4865,60.7525 C32.1545,60.7525 37.5755,66.1745 37.5755,72.8405 L37.5755,83.0615 Z" id="Fill-22" fill="#333333" mask="url(#mask-2)"></path>
            </g>
        </g>
    </g>
</svg>